<svg xmlns="http://www.w3.org/2000/svg" width="378" height="36" viewBox="0 0 378 36" role="img" aria-label="CONTRIBUTIONS IN 3D"><g transform="translate(0, 4) scale(1.1667)"><g fill="none" stroke="#8B5CF6" stroke-linecap="round" stroke-linejoin="round" stroke-width="2"><path d="M21 8a2 2 0 0 0-1-1.73l-7-4a2 2 0 0 0-2 0l-7 4A2 2 0 0 0 3 8v8a2 2 0 0 0 1 1.73l7 4a2 2 0 0 0 2 0l7-4A2 2 0 0 0 21 16Z"/><path d="m3.3 7l8.7 5l8.7-5M12 22V12"/></g></g><text x="44" y="26" font-family="Inter, ui-sans-serif, -apple-system, BlinkMacSystemFont, system-ui, sans-serif" font-size="20" font-weight="600" fill="#8B5CF6" letter-spacing="6">CONTRIBUTIONS IN 3D</text></svg>
