<svg xmlns="http://www.w3.org/2000/svg" width="378" height="36" viewBox="0 0 378 36" role="img" aria-label="LEADERSHIP &amp; IMPACT"><g transform="translate(0, 4) scale(1.1667)"><g fill="none" stroke="#8B5CF6" stroke-linecap="round" stroke-linejoin="round" stroke-width="2"><path d="M12 15v5s3.03-.55 4-2c1.08-1.62 0-5 0-5M4.5 16.5c-1.5 1.26-2 5-2 5s3.74-.5 5-2c.71-.84.7-2.13-.09-2.91a2.18 2.18 0 0 0-2.91-.09"/><path d="M9 12a22 22 0 0 1 2-3.95A12.88 12.88 0 0 1 22 2c0 2.72-.78 7.5-6 11a22.4 22.4 0 0 1-4 2z"/><path d="M9 12H4s.55-3.03 2-4c1.62-1.08 5 .05 5 .05"/></g></g><text x="44" y="26" font-family="Inter, ui-sans-serif, -apple-system, BlinkMacSystemFont, system-ui, sans-serif" font-size="20" font-weight="600" fill="#8B5CF6" letter-spacing="6">LEADERSHIP &amp; IMPACT</text></svg>
