<svg xmlns="http://www.w3.org/2000/svg" width="442" height="36" viewBox="0 0 442 36" role="img" aria-label="PLATFORMS I'M EXPERT IN"><g transform="translate(0, 4) scale(1.1667)"><g fill="none" stroke="#8B5CF6" stroke-linecap="round" stroke-linejoin="round" stroke-width="2"><path d="M12.83 2.18a2 2 0 0 0-1.66 0L2.6 6.08a1 1 0 0 0 0 1.83l8.58 3.91a2 2 0 0 0 1.66 0l8.58-3.9a1 1 0 0 0 0-1.83z"/><path d="M2 12a1 1 0 0 0 .58.91l8.6 3.91a2 2 0 0 0 1.65 0l8.58-3.9A1 1 0 0 0 22 12"/><path d="M2 17a1 1 0 0 0 .58.91l8.6 3.91a2 2 0 0 0 1.65 0l8.58-3.9A1 1 0 0 0 22 17"/></g></g><text x="44" y="26" font-family="Inter, ui-sans-serif, -apple-system, BlinkMacSystemFont, system-ui, sans-serif" font-size="20" font-weight="600" fill="#8B5CF6" letter-spacing="6">PLATFORMS I'M EXPERT IN</text></svg>
