<svg xmlns="http://www.w3.org/2000/svg" width="266" height="36" viewBox="0 0 266 36" role="img" aria-label="GITHUB STATS"><g transform="translate(0, 4) scale(1.1667)"><path fill="none" stroke="#8B5CF6" stroke-linecap="round" stroke-linejoin="round" stroke-width="2" d="M4 14a1 1 0 0 1-.78-1.63l9.9-10.2a.5.5 0 0 1 .86.46l-1.92 6.02A1 1 0 0 0 13 10h7a1 1 0 0 1 .78 1.63l-9.9 10.2a.5.5 0 0 1-.86-.46l1.92-6.02A1 1 0 0 0 11 14z"/></g><text x="44" y="26" font-family="Inter, ui-sans-serif, -apple-system, BlinkMacSystemFont, system-ui, sans-serif" font-size="20" font-weight="600" fill="#8B5CF6" letter-spacing="6">GITHUB STATS</text></svg>
