<svg xmlns="http://www.w3.org/2000/svg" viewBox="0 0 1000 320" width="1000" height="320" role="img" aria-label="By the numbers"><g transform="translate(59, 30) scale(2)"><g fill="none" stroke="#8B5CF6" stroke-linecap="round" stroke-linejoin="round" stroke-width="2"><path d="M11 21.73a2 2 0 0 0 2 0l7-4A2 2 0 0 0 21 16V8a2 2 0 0 0-1-1.73l-7-4a2 2 0 0 0-2 0l-7 4A2 2 0 0 0 3 8v8a2 2 0 0 0 1 1.73zm1 .27V12"/><path d="M3.29 7L12 12l8.71-5M7.5 4.27l9 5.15"/></g></g><text x="121" y="70" text-anchor="start" font-family="Inter, ui-sans-serif, -apple-system, BlinkMacSystemFont, system-ui, sans-serif" font-size="44" font-weight="700" fill="#8B5CF6" letter-spacing="-1">17+</text><text x="125" y="108" text-anchor="middle" font-family="Inter, ui-sans-serif, system-ui, sans-serif" font-size="13" font-weight="500" fill="#6B7280">End-to-end products</text><text x="125" y="126" text-anchor="middle" font-family="Inter, ui-sans-serif, system-ui, sans-serif" font-size="13" font-weight="500" fill="#6B7280">shipped</text><g transform="translate(284, 30) scale(2)"><g fill="none" stroke="#8B5CF6" stroke-linecap="round" stroke-linejoin="round" stroke-width="2"><path d="M12 15V3m9 12v4a2 2 0 0 1-2 2H5a2 2 0 0 1-2-2v-4"/><path d="m7 10l5 5l5-5"/></g></g><text x="346" y="70" text-anchor="start" font-family="Inter, ui-sans-serif, -apple-system, BlinkMacSystemFont, system-ui, sans-serif" font-size="44" font-weight="700" fill="#8B5CF6" letter-spacing="-1">300K+</text><text x="375" y="108" text-anchor="middle" font-family="Inter, ui-sans-serif, system-ui, sans-serif" font-size="13" font-weight="500" fill="#6B7280">Total downloads</text><text x="375" y="126" text-anchor="middle" font-family="Inter, ui-sans-serif, system-ui, sans-serif" font-size="13" font-weight="500" fill="#6B7280">across apps</text><g transform="translate(546, 30) scale(2)"><g fill="none" stroke="#8B5CF6" stroke-linecap="round" stroke-linejoin="round" stroke-width="2"><path d="M16 21v-2a4 4 0 0 0-4-4H6a4 4 0 0 0-4 4v2M16 3.128a4 4 0 0 1 0 7.744M22 21v-2a4 4 0 0 0-3-3.87"/><circle cx="9" cy="7" r="4"/></g></g><text x="608" y="70" text-anchor="start" font-family="Inter, ui-sans-serif, -apple-system, BlinkMacSystemFont, system-ui, sans-serif" font-size="44" font-weight="700" fill="#8B5CF6" letter-spacing="-1">60K+</text><text x="625" y="108" text-anchor="middle" font-family="Inter, ui-sans-serif, system-ui, sans-serif" font-size="13" font-weight="500" fill="#6B7280">Monthly active</text><text x="625" y="126" text-anchor="middle" font-family="Inter, ui-sans-serif, system-ui, sans-serif" font-size="13" font-weight="500" fill="#6B7280">users served</text><g transform="translate(821, 30) scale(2)"><g fill="none" stroke="#8B5CF6" stroke-linecap="round" stroke-linejoin="round" stroke-width="2"><path d="M8 2v4m8-4v4"/><rect width="18" height="18" x="3" y="4" rx="2"/><path d="M3 10h18M8 14h.01M12 14h.01M16 14h.01M8 18h.01M12 18h.01M16 18h.01"/></g></g><text x="883" y="70" text-anchor="start" font-family="Inter, ui-sans-serif, -apple-system, BlinkMacSystemFont, system-ui, sans-serif" font-size="44" font-weight="700" fill="#8B5CF6" letter-spacing="-1">9+</text><text x="875" y="108" text-anchor="middle" font-family="Inter, ui-sans-serif, system-ui, sans-serif" font-size="13" font-weight="500" fill="#6B7280">Years building</text><text x="875" y="126" text-anchor="middle" font-family="Inter, ui-sans-serif, system-ui, sans-serif" font-size="13" font-weight="500" fill="#6B7280">since 2017</text><g transform="translate(71, 190) scale(2)"><g fill="none" stroke="#8B5CF6" stroke-linecap="round" stroke-linejoin="round" stroke-width="2"><rect width="14" height="20" x="5" y="2" rx="2" ry="2"/><path d="M12 18h.01"/></g></g><text x="133" y="230" text-anchor="start" font-family="Inter, ui-sans-serif, -apple-system, BlinkMacSystemFont, system-ui, sans-serif" font-size="44" font-weight="700" fill="#8B5CF6" letter-spacing="-1">5+</text><text x="125" y="268" text-anchor="middle" font-family="Inter, ui-sans-serif, system-ui, sans-serif" font-size="13" font-weight="500" fill="#6B7280">React Native apps</text><text x="125" y="286" text-anchor="middle" font-family="Inter, ui-sans-serif, system-ui, sans-serif" font-size="13" font-weight="500" fill="#6B7280">at 4.8★ avg</text><g transform="translate(309, 190) scale(2)"><g fill="none" stroke="#8B5CF6" stroke-linecap="round" stroke-linejoin="round" stroke-width="2"><path d="M18 21a8 8 0 0 0-16 0"/><circle cx="10" cy="8" r="5"/><path d="M22 20c0-3.37-2-6.5-4-8a5 5 0 0 0-.45-8.3"/></g></g><text x="371" y="230" text-anchor="start" font-family="Inter, ui-sans-serif, -apple-system, BlinkMacSystemFont, system-ui, sans-serif" font-size="44" font-weight="700" fill="#8B5CF6" letter-spacing="-1">15+</text><text x="375" y="268" text-anchor="middle" font-family="Inter, ui-sans-serif, system-ui, sans-serif" font-size="13" font-weight="500" fill="#6B7280">Teams using my</text><text x="375" y="286" text-anchor="middle" font-family="Inter, ui-sans-serif, system-ui, sans-serif" font-size="13" font-weight="500" fill="#6B7280">design systems</text><g transform="translate(559, 190) scale(2)"><path fill="none" stroke="#8B5CF6" stroke-linecap="round" stroke-linejoin="round" stroke-width="2" d="m12 14l4-4M3.34 19a10 10 0 1 1 17.32 0"/></g><text x="621" y="230" text-anchor="start" font-family="Inter, ui-sans-serif, -apple-system, BlinkMacSystemFont, system-ui, sans-serif" font-size="44" font-weight="700" fill="#8B5CF6" letter-spacing="-1">95+</text><text x="625" y="268" text-anchor="middle" font-family="Inter, ui-sans-serif, system-ui, sans-serif" font-size="13" font-weight="500" fill="#6B7280">Lighthouse scores,</text><text x="625" y="286" text-anchor="middle" font-family="Inter, ui-sans-serif, system-ui, sans-serif" font-size="13" font-weight="500" fill="#6B7280">sub-2s loads</text><g transform="translate(790, 190) scale(2)"><g fill="none" stroke="#8B5CF6" stroke-linecap="round" stroke-linejoin="round" stroke-width="2"><circle cx="12" cy="12" r="3"/><path d="M3 12h6m6 0h6"/></g></g><text x="852" y="230" text-anchor="start" font-family="Inter, ui-sans-serif, -apple-system, BlinkMacSystemFont, system-ui, sans-serif" font-size="44" font-weight="700" fill="#8B5CF6" letter-spacing="-1">1.2K+</text><text x="875" y="268" text-anchor="middle" font-family="Inter, ui-sans-serif, system-ui, sans-serif" font-size="13" font-weight="500" fill="#6B7280">Commits shipped</text><text x="875" y="286" text-anchor="middle" font-family="Inter, ui-sans-serif, system-ui, sans-serif" font-size="13" font-weight="500" fill="#6B7280">this year</text></svg>